<svg xmlns="http://www.w3.org/2000/svg" viewBox="0 0 381.48 129.83"><defs><style>.cls-1,.cls-3{fill:#e9a4af;}.cls-2{fill:#fff;}.cls-2,.cls-3{fill-rule:evenodd;}.cls-4{font-size:21px;fill:#a9737b;font-family:YanoneKaffeesatz-Regular, Yanone Kaffeesatz;letter-spacing:0.06em;}</style></defs><title>Ресурс 1</title><g id="Слой_2" data-name="Слой 2"><g id="Слой_1-2" data-name="Слой 1"><circle class="cls-1" cx="64.91" cy="64.91" r="64.91"/><path class="cls-2" d="M61.53,120.85h-.81a43.79,43.79,0,0,1-12.94-2.41h0l-.19-.11a.69.69,0,0,1-.13-.11,1.47,1.47,0,0,1-.1-.13,1,1,0,0,1-.07-.15.75.75,0,0,1,0-.16.47.47,0,0,1,0-.17v-.18l.05-.14a.86.86,0,0,1,.1-.16.69.69,0,0,1,.11-.13l.13-.1.15-.07.16,0h.31a23.67,23.67,0,0,0,3.31.23,26.11,26.11,0,0,0,9.57-1.81l.1,0,0-.11a9.33,9.33,0,0,1,2.5-4.17A11.89,11.89,0,0,1,71.5,108l0,0h.08l.13,0,.13,0,.08,0,0,0,.17.12a.18.18,0,0,1,0,.07l.09.12.06.08a1.43,1.43,0,0,1,0,.2.24.24,0,0,0,0,.09v.08h0l0,.06,0,.14s0,.08,0,.1l0,0c-1.31,3.41-4,7.48-9.33,7.48a8.3,8.3,0,0,1-.87,0h-.09a26.28,26.28,0,0,1-5.43,1.6l-.1,0v.44h.1a35.8,35.8,0,0,0,4,.36h.83a29.69,29.69,0,0,0,7.93-1,21,21,0,0,0,6.43-2.94L76,115l-.1-.19a6.42,6.42,0,0,1-.82-3.33,5.54,5.54,0,0,1,2.12-4.13,5.32,5.32,0,0,0,1.67-2.29,22.45,22.45,0,0,0,.7-2.2.88.88,0,0,1,.7-.64l.21,0a2.16,2.16,0,0,1,1.12.35,5.93,5.93,0,0,1,2,2.46,3.11,3.11,0,0,1,.31,1.87l0,.3.3,0a2.23,2.23,0,0,1,.37,0,6.23,6.23,0,0,1,1.89.36l0,0,.07,0,.06,0,.1.06.07.09.11.14-.11.06.16.42.07,0a5.46,5.46,0,0,1-.22,2.07l-.1.29.3,0a3.13,3.13,0,0,1,1.76.72,5.92,5.92,0,0,1,2,2.54,2,2,0,0,1,0,1.37.89.89,0,0,1-.78.54,22.92,22.92,0,0,0-2.3.2,5.24,5.24,0,0,0-2.6,1.13,5.69,5.69,0,0,1-3.51,1.25,5.52,5.52,0,0,1-1-.09,6.42,6.42,0,0,1-3.39-1.88l-.15-.14-.16.12a22.54,22.54,0,0,1-6.89,3.2,30.86,30.86,0,0,1-8.51,1.14Zm19.36-16.19c-.14.45-.27.81-.38,1.07a7.17,7.17,0,0,1-2.18,3c-1.87,1.49-2,4-.31,6.12A4.94,4.94,0,0,0,81,116.69a3.49,3.49,0,0,0,.65.06,3.94,3.94,0,0,0,2.47-.9,7.2,7.2,0,0,1,3.36-1.46c.31,0,.69-.09,1.13-.13l.43,0-.25-.34a7.33,7.33,0,0,0-1-1.07,1.66,1.66,0,0,0-1.08-.34,3.14,3.14,0,0,0-.51,0,4.18,4.18,0,0,0-1.1.33,1,1,0,0,1-.38.08.86.86,0,0,1-.71-.36.88.88,0,0,1,.09-1.13,7.37,7.37,0,0,0,1.17-1.51,2.11,2.11,0,0,0,.15-.73l0-.21-.22,0a3,3,0,0,0-.54-.06l-.22,0a6.9,6.9,0,0,0-1.74.81.94.94,0,0,1-.46.13.92.92,0,0,1-.66-.29.88.88,0,0,1-.12-1l.07-.13,0,0a4.52,4.52,0,0,0,.56-1,1.9,1.9,0,0,0,.06-1.61,6.15,6.15,0,0,0-.81-1.25l-.28-.33-.13.42ZM69.7,110c-3.24.55-5.41,2.11-6.47,4.63l-.15.35.38,0a6.91,6.91,0,0,0,2.85-.73A8.84,8.84,0,0,0,70,110.32l.23-.43-.48.08ZM45.2,114.2a.87.87,0,0,0,.78-.47c.07-.14,1.69-3.32.52-6.12a5,5,0,0,0-.62-1.08l-.24-.32.39-.06a5,5,0,0,0,1.21-.33c2.75-1.15,3.87-4.57,3.92-4.71a.89.89,0,0,0-.44-1,9.66,9.66,0,0,0-3.89-.94,5.7,5.7,0,0,0-2.22.42,5.56,5.56,0,0,0-1.09.63l-.32.23-.06-.39a4.76,4.76,0,0,0-.32-1.2c-1.15-2.76-4.57-3.88-4.72-3.92a.75.75,0,0,0-.26,0,.87.87,0,0,0-.78.47c-.07.14-1.68,3.35-.52,6.12a5.16,5.16,0,0,0,.62,1.08l.24.32-.39.06a5.46,5.46,0,0,0-1.2.32c-2.78,1.17-3.88,4.58-3.93,4.72a.89.89,0,0,0,.44,1,9.78,9.78,0,0,0,3.9.94,5.65,5.65,0,0,0,2.21-.42,5.29,5.29,0,0,0,1.09-.63l.32-.23.06.39a5.22,5.22,0,0,0,.32,1.2c1.17,2.79,4.58,3.88,4.72,3.92a.75.75,0,0,0,.26,0Zm-3.29-8.28.08-.26.25.12a4.51,4.51,0,0,1,2.58,6.15l-.09.27-.25-.13a4.49,4.49,0,0,1-2.57-6.15ZM38,104.56a7,7,0,0,1,2.09.35l.27.09-.13.25a5.48,5.48,0,0,1-2.5,2.64,4,4,0,0,1-1.55.29,6.86,6.86,0,0,1-2.1-.36l-.26-.09.12-.25a5.45,5.45,0,0,1,2.51-2.64,4,4,0,0,1,1.55-.28Zm8.8-3.69a4,4,0,0,0-1.55.29,5.52,5.52,0,0,0-2.5,2.64l-.13.25.27.09a7.24,7.24,0,0,0,2.1.36,4,4,0,0,0,1.54-.29,5.45,5.45,0,0,0,2.51-2.64l.12-.25-.26-.09a7.24,7.24,0,0,0-2.1-.36Zm-8.61-3.75.09-.27.25.13a4.49,4.49,0,0,1,2.57,6.15l-.08.26-.25-.12a4.51,4.51,0,0,1-2.58-6.15Zm19.37,15.94a2.95,2.95,0,0,0,2.89-3.54l0-.2.19-.08a2.93,2.93,0,0,0,1.8-3.57A2.89,2.89,0,0,0,61,103.9a3,3,0,0,0-1.44-.37,2.88,2.88,0,0,0-.59.06l-.2,0-.07-.19a2.93,2.93,0,0,0-1.33-1.55,3,3,0,0,0-1.43-.37,2.95,2.95,0,0,0-2.89,3.54l0,.2-.19.08a2.93,2.93,0,0,0-1.55,1.33,3,3,0,0,0-.26,2.24A3,3,0,0,0,54,111.05a2.88,2.88,0,0,0,.59-.06l.2,0,.07.19a3,3,0,0,0,2.77,1.92Zm-1.81-4.83a.91.91,0,0,1,.42.11.87.87,0,0,1,.45.77.91.91,0,0,1-.11.42,1.21,1.21,0,0,0,.47,1.63,1.13,1.13,0,0,0,.57.15,1.22,1.22,0,0,0,1.06-.62,1.21,1.21,0,0,0-.47-1.63.88.88,0,0,1-.34-1.19.89.89,0,0,1,.77-.45.91.91,0,0,1,.42.11,1.13,1.13,0,0,0,.57.15,1.22,1.22,0,0,0,1.06-.62,1.18,1.18,0,0,0-1-1.77,1,1,0,0,0-.35,0,1.16,1.16,0,0,0-.72.56.91.91,0,0,1-.52.42,1,1,0,0,1-.25,0,.91.91,0,0,1-.42-.11.87.87,0,0,1-.45-.77.91.91,0,0,1,.11-.42,1.2,1.2,0,0,0,.1-.91,1.18,1.18,0,0,0-.57-.72,1.19,1.19,0,0,0-.56-.14,1.22,1.22,0,0,0-1.07.61,1.16,1.16,0,0,0-.1.91,1.17,1.17,0,0,0,.57.72.87.87,0,0,1,.45.77.88.88,0,0,1-.63.84l-.25,0a.88.88,0,0,1-.42-.11,1.23,1.23,0,0,0-1.63.47,1.18,1.18,0,0,0,1,1.77,1.24,1.24,0,0,0,1.07-.61.87.87,0,0,1,.77-.45Zm37.93.5a6.22,6.22,0,0,0,6.11-7.42l-.06-.35.34.07a6.59,6.59,0,0,0,1.24.12,6.24,6.24,0,0,0,0-12.48,6.49,6.49,0,0,0-1.23.12l-.34.07.06-.35a6.23,6.23,0,1,0-12.34-1.18,6.73,6.73,0,0,0,.11,1.18l.07.35-.35-.07a6.73,6.73,0,0,0-1.18-.11,6.24,6.24,0,0,0,0,12.47,5.91,5.91,0,0,0,1.18-.12l.35-.06-.07.34a6.91,6.91,0,0,0-.11,1.18,6.23,6.23,0,0,0,6.23,6.24Zm-3.17-9.41a4.48,4.48,0,1,0,6.34,0l-.49-.5-.1.43a6.61,6.61,0,0,1-2,3.16.9.9,0,0,1-.57.2.85.85,0,0,1-.56-.2,6.42,6.42,0,0,1-2-3.16L91,98.82l-.5.5Zm3-2.9.19-.26.19.26a2.81,2.81,0,0,1,0,3.82l-.19.26-.19-.27a2.79,2.79,0,0,1,0-3.81Zm7.77-6a4.49,4.49,0,1,1-3.17,7.65l-.5-.49.43-.1a6.49,6.49,0,0,0,3.16-2,.87.87,0,0,0,0-1.13,6.54,6.54,0,0,0-3.16-2l-.43-.09.5-.5a4.44,4.44,0,0,1,3.17-1.31Zm-15.16,0a4.42,4.42,0,0,1,3.17,1.31l.5.5-.42.09a6.53,6.53,0,0,0-3.17,2,.89.89,0,0,0,0,1.13,6.54,6.54,0,0,0,3.17,2l.42.1-.5.49a4.48,4.48,0,0,1-7.65-3.17,4.47,4.47,0,0,1,4.48-4.48Zm11,3.55a3.41,3.41,0,0,1,1.9.74l.27.19-.27.2a3.49,3.49,0,0,1-1.9.74,3.41,3.41,0,0,1-1.91-.74l-.26-.2.26-.19A3.41,3.41,0,0,1,97.13,94ZM90.3,94a3.41,3.41,0,0,1,1.9.74l.27.19-.27.2a3.49,3.49,0,0,1-1.9.74,3.41,3.41,0,0,1-1.91-.74l-.27-.2.27-.19A3.41,3.41,0,0,1,90.3,94Zm3.22-4.39.19-.26.19.26a2.79,2.79,0,0,1,0,3.81l-.19.27-.19-.27a2.79,2.79,0,0,1,0-3.81Zm.19-2.39a.9.9,0,0,0-.56.21,6.46,6.46,0,0,0-2,3.17L91,91l-.5-.5a4.48,4.48,0,0,1,6.34-6.34,4.48,4.48,0,0,1,0,6.34l-.49.5-.1-.42a6.6,6.6,0,0,0-2-3.17.91.91,0,0,0-.57-.21ZM74.22,106a.9.9,0,0,0,.7-.33.89.89,0,0,0-.16-1.23,17.72,17.72,0,0,1-3.45-3.64l-.15-.22.23-.13a11.94,11.94,0,0,0,5.47-7.62c2.49-10.19,4.24-13,4.31-13.17a.87.87,0,0,0-.71-1.37,1,1,0,0,0-.24,0A23.25,23.25,0,0,0,75,80.64c-3.66,2.15-6.09,5-7,8.14a13.81,13.81,0,0,0-.39,1.65v.1H67.1l0-.1c-.14-.73-.27-1.46-.37-2.18a47.91,47.91,0,0,1-.36-8.89v-.22h.22a21.85,21.85,0,0,0,5.11-.82C76,77.05,79,74.52,80.18,71c.36-1,.7-2.21,1-3.36.48-1.69,1-3.43,1.55-4.83a8.85,8.85,0,0,1,1.58-2.74.86.86,0,0,0,.25-.86.88.88,0,0,0-.64-.62,17.69,17.69,0,0,0-3.89-.41,17.11,17.11,0,0,0-2,.12l-.4,0,.15-.37a21.67,21.67,0,0,1,2-3.82.86.86,0,0,0,0-.89.88.88,0,0,0-.75-.48H79a13.22,13.22,0,0,0-6.41,1.88l-.36.23L72,55l-.2.14-.14-.2a15.3,15.3,0,0,0-3.45-3.51,4.89,4.89,0,0,1-1.72-2.18h-.07l0-.23a.87.87,0,0,0-.72-.71h-.13a.88.88,0,0,0-.52.18.86.86,0,0,0-.34.58,4.37,4.37,0,0,1-1.78,2.36,16,16,0,0,0-3.28,3.26l-.14.19-.38-.26-.41-.29A11.78,11.78,0,0,0,53,52.5a.86.86,0,0,0-.72.38.9.9,0,0,0-.1.81A44.77,44.77,0,0,1,53.55,58l.09.35-.35,0a14,14,0,0,0-1.85-.11,14.93,14.93,0,0,0-4,.53.89.89,0,0,0-.63.68.85.85,0,0,0,.33.83,7.3,7.3,0,0,1,1.53,2.55A37.54,37.54,0,0,1,50,67.39c.33,1.3.64,2.53,1,3.59,1.22,3.54,4.15,6.07,8.49,7.33a21.92,21.92,0,0,0,4.88.81h.24l0,.24A49.06,49.06,0,0,0,65,88.44c0,.3.1.59.16.93l.18,1-.56-.64A19.55,19.55,0,0,0,60.34,86a69.79,69.79,0,0,0-9-3.92.94.94,0,0,0-.3,0,.87.87,0,0,0-.69,1.41,55.4,55.4,0,0,1,3.92,5.85c.52.9,1,1.79,1.36,2.66a18.94,18.94,0,0,0,4.23,6.28,11.22,11.22,0,0,0,7.86,3.15,9.27,9.27,0,0,0,1.33-.09h.07a1.15,1.15,0,0,0,.22,0h0l.15,0,.08.12a19.37,19.37,0,0,0,4,4.4.86.86,0,0,0,.53.17ZM57.33,91.41l0,0-.19-.4,0,0c-.37-.77-.79-1.64-1.32-2.56s-1.17-2-1.86-3l-.44-.65.73.29a45.13,45.13,0,0,1,5.18,2.42,20.4,20.4,0,0,1,7.17,8.11c.16.32.31.64.46.95l.23.59.29.71-.64-.42c-.55-.36-1.08-.72-1.61-1.1a24.84,24.84,0,0,1-5-5.25.88.88,0,0,0-.55-.37h-.18a.9.9,0,0,0-.48.14.87.87,0,0,0-.37.56.83.83,0,0,0,.13.65,26.4,26.4,0,0,0,5.45,5.7c.64.46,1.28.9,1.9,1.29l.08,0-.16.41-.1,0A9.42,9.42,0,0,1,61.09,97a17.13,17.13,0,0,1-3.76-5.57Zm16-5.29a.87.87,0,0,0-.52.17.89.89,0,0,0-.35.57,47.29,47.29,0,0,1-1.9,7.46c-.26.7-.53,1.38-.82,2.05l-.33.79-.13-.85a16.05,16.05,0,0,1,.34-7c1.36-4.52,6-7.15,8.57-8.31l.54-.24-.21.54a86.59,86.59,0,0,0-3.36,11.17,10.33,10.33,0,0,1-3.51,5.7l-.43.33L70.5,99l.36-.81c.47-1,.92-2.1,1.34-3.24a50.57,50.57,0,0,0,2-7.8.87.87,0,0,0-.73-1Zm-18.9-31.3-.14-.41.42.1a10.91,10.91,0,0,1,3.07,1.3,11.48,11.48,0,0,1,3.69,3.74A18.65,18.65,0,0,1,63.93,67l.14,1.1c.25,1.84.47,3.58.55,5.13s.08,2.86.08,3.68v.31l-.3-.07a12.92,12.92,0,0,1-2.79-1,8.7,8.7,0,0,1-4.83-6.61c-.19-1.18-.29-2.62-.41-4.15A51.74,51.74,0,0,0,55.79,60a40,40,0,0,0-1.36-5.17Zm22.42,0,.5-.11-.23.46a19.47,19.47,0,0,0-1.62,4.25l-.07.24c0,.12-.06.24-.08.36a51.4,51.4,0,0,0-.57,5.34v.06c-.11,1.52-.22,3-.41,4.14a8.68,8.68,0,0,1-4.77,6.58,11.82,11.82,0,0,1-2.85,1.06l-.29.08v-.31c0-.84,0-2.15.08-3.68s.3-3.3.54-5.15L67.22,67c.66-5.16,2.76-8.82,6.22-10.88a11.82,11.82,0,0,1,3.41-1.36Zm3.33,5.13a15.47,15.47,0,0,1,1.63.08l.37,0-.18.33a14.56,14.56,0,0,0-.86,1.77c-.6,1.48-1.11,3.28-1.61,5l0,0c-.3,1.06-.65,2.25-1,3.22a9.1,9.1,0,0,1-4.64,5.15l-.09,0-.27-.34.07-.08a10.55,10.55,0,0,0,2.49-5.39c.2-1.27.31-2.73.43-4.29.13-1.75.26-3.55.54-5.12l0-.16.16,0a14.5,14.5,0,0,1,2.93-.28ZM51.75,67.25l-.08,0-.16-.42.12-.07a37.48,37.48,0,0,0-1.39-4.65,12.23,12.23,0,0,0-.83-1.7l-.19-.31.36,0A14.39,14.39,0,0,1,51.36,60a13.11,13.11,0,0,1,2.54.24l.16,0,0,.16c.27,1.57.41,3.37.54,5.12.11,1.56.22,3,.43,4.29a10.41,10.41,0,0,0,2.44,5.33l.07.08-.28.34-.08,0a9,9,0,0,1-4.56-5.09c-.33-1-.62-2.07-.9-3.16ZM65.38,51.43l.19-.25.19.25a8,8,0,0,0,1.4,1.38,13.43,13.43,0,0,1,3.17,3.24l.11.17-.15.14a13.32,13.32,0,0,0-2.11,2.52A17.87,17.87,0,0,0,65.81,65l0,.1h-.43l0-.1A19.11,19.11,0,0,0,63,58.63a13.65,13.65,0,0,0-2-2.48L60.84,56l.12-.17a13.71,13.71,0,0,1,3-3,7.9,7.9,0,0,0,1.39-1.38Zm-37,52.12a2.22,2.22,0,0,1-.45,0,1.92,1.92,0,0,1-1.17-.87,2.06,2.06,0,0,1-.21-.48l0-.11-.1-.05a1.91,1.91,0,0,1-.62-3,2.07,2.07,0,0,1,.39-.34l.1-.06v-.11a1.78,1.78,0,0,1,.14-.5,1.89,1.89,0,0,1,1-1,1.87,1.87,0,0,1,.71-.14,1.93,1.93,0,0,1,1.2.42l.08.06.11,0a2.07,2.07,0,0,1,.35,0,1.92,1.92,0,0,1,1.9,2.08,2.36,2.36,0,0,1-.12.51l0,.1,0,.1a1.9,1.9,0,0,1-1.67,2.81h-.21l-.07.08a2,2,0,0,1-1.4.59Zm-.22-4.28a.84.84,0,0,1-.13.44.85.85,0,0,1-.34.31l-.48.26.52.18a.86.86,0,0,1,.37.26.81.81,0,0,1,.19.42l.1.54.33-.44a.88.88,0,0,1,.36-.27,1,1,0,0,1,.33-.07h.13l.54.09-.31-.46a.86.86,0,0,1-.15-.43.87.87,0,0,1,.09-.45l.24-.49-.52.15a.69.69,0,0,1-.25,0,.76.76,0,0,1-.21,0,.88.88,0,0,1-.4-.22l-.39-.38,0,.54Zm28,.38a1,1,0,0,1-.25,0,13.61,13.61,0,0,1-5.78-3.9l-.08-.1H50a8,8,0,0,1-5.47-1.46c-1.8-1.36-3.93-4.31-4.22-6.68l.13,0V87.4h0v-.11l0-.34h0l0-.07a.31.31,0,0,1,.05-.1.34.34,0,0,1,.09-.08l.11-.1.07.1.4-.2,0-.07a6.58,6.58,0,0,1,.9-.06,12.64,12.64,0,0,1,6.69,2.29,8.12,8.12,0,0,1,3.05,5.88v.07l0,.16.08.09a12.15,12.15,0,0,0,4.69,3.08.87.87,0,0,1-.26,1.71ZM42.32,88.47l-.14-.36.39,0a10.68,10.68,0,0,1,5,1.92,5.93,5.93,0,0,1,2.16,3.53l.07.29h-.65a5.87,5.87,0,0,1-3.63-1.11,10.79,10.79,0,0,1-3.22-4.31ZM31.5,94.81A5.73,5.73,0,0,0,37,87.49a6.14,6.14,0,0,0-.33-.88l-.14-.3.33,0a5.8,5.8,0,0,0,4.36-2.92A5.75,5.75,0,0,0,39,75.55a5.8,5.8,0,0,0-2.79-.7,5.92,5.92,0,0,0-2.46.54l-.3.15,0-.33a5.73,5.73,0,0,0-10.71-2.13,5.67,5.67,0,0,0-.49,4.36,5,5,0,0,0,.33.89l.14.3-.33,0A5.72,5.72,0,0,0,17.49,86a5.67,5.67,0,0,0,2.73,3.43,5.77,5.77,0,0,0,2.78.71,5.71,5.71,0,0,0,2.46-.55l.3-.14,0,.33a6.14,6.14,0,0,0,.19.93,5.67,5.67,0,0,0,2.73,3.43,5.76,5.76,0,0,0,2.78.72Zm-3.58-7.46.09-.19.2.06a5,5,0,0,0,1.42.21A4.72,4.72,0,0,0,31,87.24a5,5,0,0,0,2.34-1.48l.13-.16.18.11a4,4,0,0,1-2.12,7.35,4,4,0,0,1-3.58-5.71Zm-4.94-7a4.07,4.07,0,0,1,1.74.4l.19.09-.06.2a4.89,4.89,0,0,0,0,2.76,5,5,0,0,0,1.49,2.32l.15.14-.11.17A4,4,0,1,1,23,80.39Zm6.63-1.14a3.22,3.22,0,0,1,3.08,2.33,3.23,3.23,0,0,1-2.2,4,3.35,3.35,0,0,1-.89.12,3.21,3.21,0,0,1-2.81-4.77,3.18,3.18,0,0,1,1.93-1.53,3,3,0,0,1,.89-.13Zm6.6-2.66a4.07,4.07,0,0,1,1.93.49,4,4,0,0,1-3.66,7.06l-.18-.08.06-.2a4.86,4.86,0,0,0-1.47-5.09l-.15-.13.11-.17a3.93,3.93,0,0,1,3.36-1.88Zm-8.5-4.71a4,4,0,0,1,3.57,5.71l-.09.18-.19,0a5,5,0,0,0-1.42-.22,4.85,4.85,0,0,0-1.35.2,4.91,4.91,0,0,0-2.33,1.48l-.14.15-.17-.11a4,4,0,0,1-1.37-5.29,4,4,0,0,1,3.49-2.05Zm81,17.37a2.77,2.77,0,0,1-1.35-.35,2.74,2.74,0,0,1-1.24-1.4l-.07-.18-.19,0a2.7,2.7,0,0,1-.49,0,2.81,2.81,0,0,1-1.36-.35,2.78,2.78,0,0,1,.32-5l.18-.08,0-.19a2.74,2.74,0,0,1,.3-1.84,2.78,2.78,0,0,1,5,.31l.08.18.19,0a2.63,2.63,0,0,1,.49,0,2.89,2.89,0,0,1,1.35.35A2.79,2.79,0,0,1,113,84.47a2.82,2.82,0,0,1-1.4,1.24l-.18.07,0,.19a2.83,2.83,0,0,1-.3,1.85,2.8,2.8,0,0,1-2.44,1.43Zm-1.67-4.59a.67.67,0,0,0-.24,0,.83.83,0,0,0-.53.42,1.06,1.06,0,0,1-.92.52,1,1,0,0,1-.49-.12,1,1,0,0,1-.4-1.41,1.06,1.06,0,0,1,.62-.49,1,1,0,0,1,.3,0,1,1,0,0,1,.49.12.76.76,0,0,0,.42.11.87.87,0,0,0,.88-.87.89.89,0,0,0-.46-.77,1,1,0,0,1-.49-.62,1,1,0,0,1,.09-.79,1.06,1.06,0,0,1,.92-.52,1,1,0,0,1,.49.12,1,1,0,0,1,.4,1.41.87.87,0,0,0-.1.42.88.88,0,0,0,.44.77,1,1,0,0,0,.43.11.67.67,0,0,0,.24,0,.87.87,0,0,0,.53-.41,1,1,0,0,1,.62-.49,1,1,0,0,1,.3,0,1,1,0,0,1,.49.12,1,1,0,0,1,.4,1.41,1.07,1.07,0,0,1-.92.53,1,1,0,0,1-.49-.12.8.8,0,0,0-.42-.11,1.07,1.07,0,0,0-.25,0,.87.87,0,0,0-.52.42.91.91,0,0,0-.11.42.87.87,0,0,0,.45.77,1,1,0,0,1,.5.62,1.09,1.09,0,0,1-.09.79,1.07,1.07,0,0,1-.92.53,1,1,0,0,1-.49-.13,1,1,0,0,1-.5-.62,1.08,1.08,0,0,1,.09-.79.88.88,0,0,0-.34-1.19.91.91,0,0,0-.42-.11Zm-23.3,1.8a.84.84,0,0,1-.6-.29.9.9,0,0,1-.22-.63c.18-3.45,2.29-7,3.19-8.42l.08-.14-.08-.13a11.07,11.07,0,0,1-1.86-6.43c.14-3.4,1.58-6.39,3.78-7.8l.06.09.4-.17,0-.09h.27l.09,0,.1,0a.67.67,0,0,1,.12.06l.08.07.18.17A11.85,11.85,0,0,1,91.9,72,8,8,0,0,1,88,77.5l0,0,0,0c-.52.76-3.07,4.62-3.25,8.08a.88.88,0,0,1-.87.83ZM88.2,64.75c-.69.7-2.9,3.16-2.17,5.74a20.27,20.27,0,0,1,1,4.38V75l0,.08a4.59,4.59,0,0,1,.3.47l.14.23.21-.17a5.86,5.86,0,0,0,2.44-3.84,9.74,9.74,0,0,0-1.6-6.93l-.16-.25-.21.21ZM46.31,84.32a.85.85,0,0,1-.38-.09.87.87,0,0,1-.44-.5.92.92,0,0,1,0-.67c2.49-5,.8-7.76.23-8.5l-.07-.08h-.1c-2.4-.18-5.1-.66-6.92-2.87-2.79-3.39-1.67-8.35-1.07-11v-.07c.11-.46.19-.83.25-1.13l0-.08a.35.35,0,0,1,.06-.16.34.34,0,0,1,.09-.12.6.6,0,0,1,.12-.14l.14-.08,0,0,.14,0,.08,0h.31l.08,0,.16.07a.44.44,0,0,1,.13.09.45.45,0,0,1,.12.12.38.38,0,0,1,.09.14l.06.09,0,0c.5,1.4,2.29,2.83,3.88,4.09a11.43,11.43,0,0,1,3,2.91,10.86,10.86,0,0,1,.69,7l0,.1.06.08a6.86,6.86,0,0,1,1.19,2.37c.47,1.64.64,4.36-1.19,8a.88.88,0,0,1-.8.48ZM39,62.32l.09-.46.32.34a26.64,26.64,0,0,0,2.89,2.56,11.37,11.37,0,0,1,2.5,2.35,8.53,8.53,0,0,1,.58,5.36l0,.23-.23,0c-1.79-.18-3.8-.58-5.12-2.18-1.89-2.29-1.53-5.57-1-8.17ZM96.58,79a.87.87,0,0,0,.85-.67,24.16,24.16,0,0,0,.49-2.71l0,0,0,0a1.23,1.23,0,0,0,.12-.26,3.48,3.48,0,0,1,.24-.64l.11-.24.23.14a10.38,10.38,0,0,0,5.28,1.64,7.42,7.42,0,0,0,3-.63c1.24-.56,2.86-2.25,5-5.16,1.31-1.83,2.39-3.58,2.69-4.06a.89.89,0,0,0,0-.81A.87.87,0,0,0,114,65a53.76,53.76,0,0,0-8.72-1,8.54,8.54,0,0,0-3.25.47,7.47,7.47,0,0,0-3.18,2.71l-.43.65V67c0-1.2,0-2.44-.08-3.58v-.22l.22,0A8.61,8.61,0,0,0,106,54.69V48.8a.9.9,0,0,0,0-.16l0-.07v-.08a4.56,4.56,0,0,0,.06-.72,4.74,4.74,0,0,0-2.66-4.2,11,11,0,0,0-9.3,0,3.66,3.66,0,0,0,0,6.39,7.42,7.42,0,0,0,6.25,0,2,2,0,0,0,0-3.84,4.94,4.94,0,0,0-4.29,0,.87.87,0,0,0-.37,1.18.86.86,0,0,0,.52.43,1.07,1.07,0,0,0,.25,0,.83.83,0,0,0,.41-.1,3.3,3.3,0,0,1,2.66,0,1.34,1.34,0,0,1,.29.2L100,48l-.21.18a1.78,1.78,0,0,1-.29.19,5.67,5.67,0,0,1-4.61,0,1.91,1.91,0,0,1,0-3.29,9.25,9.25,0,0,1,7.66,0,2.9,2.9,0,0,1,0,5.31,13.56,13.56,0,0,1-6.21,1.35,13.93,13.93,0,0,1-5.63-1.1l-.14-.06V48.8a.88.88,0,0,0-1.75,0v5.89a8.6,8.6,0,0,0,7.56,8.53l.21,0v.2c.12,2.79.28,9.79-.85,14.41a.88.88,0,0,0,.11.67.83.83,0,0,0,.54.39.64.64,0,0,0,.2,0Zm11.06-10.81h-.09a20.64,20.64,0,0,0-8,2.61l-.55.35.19-.62a6.79,6.79,0,0,1,3.51-4.44,6.89,6.89,0,0,1,2.54-.32,45.93,45.93,0,0,1,6.77.67l.36.06-.2.31c-2,3-4.56,6.49-6,7.13a5.52,5.52,0,0,1-2.28.48,8.6,8.6,0,0,1-4.1-1.22l-.3-.18.27-.22A12.1,12.1,0,0,1,103.19,71a22,22,0,0,1,4.53-1.06.87.87,0,0,0,.59-.32.83.83,0,0,0,.19-.64.86.86,0,0,0-.31-.59.89.89,0,0,0-.55-.2ZM90.55,54.69V52.55l.32.11a16.61,16.61,0,0,0,5.45.87,15.35,15.35,0,0,0,7-1.55l.53-.32.37-.26v3.29a6.85,6.85,0,1,1-13.7,0ZM17.29,75.18a.86.86,0,0,1-.6-.24.87.87,0,0,1-.28-.61.89.89,0,0,1,.24-.62,14.85,14.85,0,0,0,3.07-5l0-.12-.07-.11a10.38,10.38,0,0,1-2.13-7.43c.36-3,2.33-7.42,4.87-9.35l0,0,.1-.06.08,0a.57.57,0,0,1,.16-.08h.29a.35.35,0,0,1,.13,0l.11,0,.11,0,.1.07.09.08.07,0,0,.05c2,2.47,2.9,7.25,2.53,10.26a10.74,10.74,0,0,1-4.7,7.4.78.78,0,0,1-.22.12l-.1,0,0,.1a16.34,16.34,0,0,1-3.28,5.12.89.89,0,0,1-.61.27Zm5.36-21.25a14.77,14.77,0,0,0-3.36,7.37,8.11,8.11,0,0,0,.83,4.55l.31.65.14-.7a15.8,15.8,0,0,0,.34-3.09.88.88,0,0,1,1.75,0,16.24,16.24,0,0,1-.3,3.13v.09l.38.17.06-.07a8.14,8.14,0,0,0,1.74-4.06A15.29,15.29,0,0,0,23,54l-.16-.29-.23.25ZM33,66.26h-.12a.88.88,0,0,1-.73-.8v-.06A22.33,22.33,0,0,1,29.7,55v0l0-.08a11.73,11.73,0,0,1-2.5-8.17c.34-6,5.36-10.3,8.32-12.33l.06,0a.49.49,0,0,1,.13-.06l.1,0,.08,0h.2a1.11,1.11,0,0,1,.3.06,2.06,2.06,0,0,1,.4.34.81.81,0,0,0,0,.14l0,.08a.94.94,0,0,0,0,.09v.19a.62.62,0,0,1,0,.18,38.47,38.47,0,0,0-.78,8.45,39.51,39.51,0,0,1-.22,4.14,10.54,10.54,0,0,1-4.32,6.84l-.1.08v.12a23.47,23.47,0,0,0,1,6.7l.25.8.21-.81a31.28,31.28,0,0,1,1.9-5.44,27.91,27.91,0,0,1,3.86-6.1,24,24,0,0,1,3.65-3.56l.17-.13-.11-.18a13,13,0,0,1-1.27-2.74,7.94,7.94,0,0,1,1.11-7.52,30.92,30.92,0,0,1,2.07-2.36,33.7,33.7,0,0,0,2.45-2.85,14.82,14.82,0,0,0,1.89-3.46.88.88,0,0,1,.72-.58h.1a.88.88,0,0,1,.74.4,13.9,13.9,0,0,1,1.67,4.25l0,.17.17,0a4.44,4.44,0,0,1,1.82.83,5,5,0,0,0,1.25.69,3.35,3.35,0,0,0,.85.11A3.57,3.57,0,0,0,57.09,33l.39.87.83.47a3.28,3.28,0,0,0-.24,1.91,4.79,4.79,0,0,0,.56,1.31,4.37,4.37,0,0,1,.66,1.88v.17l.16,0a14.16,14.16,0,0,1,4.09,2.06.88.88,0,0,1,.31.87.89.89,0,0,1-.65.67,15,15,0,0,0-3.62,1.55,33.59,33.59,0,0,0-3,2.18c-.91.7-1.77,1.36-2.55,1.85A7.53,7.53,0,0,1,50,50a10.74,10.74,0,0,1-6.09-2.23l-.14-.11-.15.11A22.8,22.8,0,0,0,40,51.25,26.18,26.18,0,0,0,36.39,57a30.6,30.6,0,0,0-2.48,8.55.89.89,0,0,1-.87.75ZM31.8,44.43a1.09,1.09,0,0,1,.26,0,.89.89,0,0,1,.52.43.86.86,0,0,1,.06.67,32.87,32.87,0,0,0-1.09,6.22l-.06.7L32,52a8.2,8.2,0,0,0,2.16-4.35c.13-.93.16-2.3.2-3.88,0-1.87.1-4,.34-6l.07-.61-.47.4c-4.4,3.78-5.24,7.44-5.35,9.29a10.65,10.65,0,0,0,.51,4l0,.09.43-.05v-.09A33.83,33.83,0,0,1,31,45a.89.89,0,0,1,.42-.51.86.86,0,0,1,.41-.1Zm23.76-3.68a9.78,9.78,0,0,0-5,1.38,29,29,0,0,0-3.64,2.57c-.39.32-.74.62-1.06.9l-.64.6-.23.21.25.17A8.74,8.74,0,0,0,50,48.23a5.8,5.8,0,0,0,3.1-.91c.71-.45,1.53-1.08,2.4-1.75a35.87,35.87,0,0,1,3.24-2.3,17.79,17.79,0,0,1,1.79-.93l.48-.21-.48-.22a11.82,11.82,0,0,0-4.92-1.16ZM49.27,30a18.26,18.26,0,0,1-1.09,1.7,34.83,34.83,0,0,1-2.58,3c-.74.81-1.45,1.57-2,2.25a6.18,6.18,0,0,0-.83,5.92,10.85,10.85,0,0,0,.84,1.93l.14.27.23-.2c.19-.18.41-.38.66-.59l1-1A28.08,28.08,0,0,0,48.56,40a10,10,0,0,0,1.64-8.12,12.51,12.51,0,0,0-.5-1.76l-.17-.49-.26.46Zm2.9,3.7a11.5,11.5,0,0,1-1.32,5.81l-.31.59.61-.26A11.38,11.38,0,0,1,55.56,39a12.71,12.71,0,0,1,1.5.09l.44.06-.2-.41-.2-.38a6.17,6.17,0,0,1-.74-1.8,4.7,4.7,0,0,1-.06-1.41l0-.28-.34,0a4.68,4.68,0,0,1-1.34-.2,6.41,6.41,0,0,1-1.73-.91l-.38-.25-.38-.23v.44Zm58.88,26.44a1,1,0,0,1-.44-.13l-.1,0-.11,0a.92.92,0,0,1-.38.09.84.84,0,0,1-.61-.29.87.87,0,0,1-.1-1l0-.1,0-.11a.85.85,0,0,1,.2-1,.87.87,0,0,1,.58-.22.91.91,0,0,1,.42.11l.1.05.11,0a.87.87,0,0,1,1,.21.86.86,0,0,1,.11,1l0,.1,0,.1a.88.88,0,0,1-.21,1,.82.82,0,0,1-.55.23ZM44.49,57.51a.91.91,0,0,1-.42-.11.87.87,0,0,1-.42-.52l-.34-1.15-1.16.34a.85.85,0,0,1-.23,0,.89.89,0,0,1-.85-.63.84.84,0,0,1,.07-.66.84.84,0,0,1,.52-.42l1.16-.34-.34-1.16a.88.88,0,0,1,.59-1.08,1.09,1.09,0,0,1,.25,0,.89.89,0,0,1,.84.63l.34,1.16,1.15-.34a1.07,1.07,0,0,1,.25,0,.9.9,0,0,1,.42.1.88.88,0,0,1,.35,1.19.89.89,0,0,1-.53.42L45,55.24l.34,1.15a.89.89,0,0,1-.6,1.09,1,1,0,0,1-.24,0Zm41-1.57a.94.94,0,0,1-.44-.12l-.1-.06-.11.05a.9.9,0,0,1-.38.08.79.79,0,0,1-.61-.29.88.88,0,0,1-.11-1l.06-.1-.05-.11a.87.87,0,0,1,.21-1,.86.86,0,0,1,.57-.21.81.81,0,0,1,.43.11l.1,0,.11,0a.84.84,0,0,1,.35-.07.87.87,0,0,1,.63.27.86.86,0,0,1,.11,1l-.06.1,0,.11a.87.87,0,0,1-.21,1,.8.8,0,0,1-.55.23Zm-3.9-5.31a5.83,5.83,0,0,1-2.15-.41,5.9,5.9,0,0,1-3.29-3.14,7.18,7.18,0,0,1-.33-1l-.08-.33-.28.19a6.06,6.06,0,0,1-3.33,1,5.92,5.92,0,0,1-1.37-11.69l.33-.08-.19-.28a6,6,0,0,1-.61-5.47A5.92,5.92,0,0,1,78,26.05a6,6,0,0,1,3.61,4.13l.08.33.28-.19a5.93,5.93,0,0,1,3.31-1,5.94,5.94,0,0,1,5.53,8.09A5.87,5.87,0,0,1,86.65,41l-.34.08.19.29a5.59,5.59,0,0,1,.51.92,5.94,5.94,0,0,1-5.43,8.33Zm-3.9-7.46,1.07-2.75L80,43.21a.89.89,0,0,0,.81.51.77.77,0,0,0,.34-.07.85.85,0,0,0,.47-.48.86.86,0,0,0,0-.67l-1.22-2.78,2.75,1.07a4.19,4.19,0,0,1-1.52,8.09,4.18,4.18,0,0,1-3.9-5.71Zm-5.54-6.34a4.19,4.19,0,1,0,3.91,5.71l1.06-2.75L74.33,41a.8.8,0,0,1-.34.07.88.88,0,0,1-.81-.52.86.86,0,0,1,0-.67.85.85,0,0,1,.47-.48l2.78-1.22-2.75-1.08a4.4,4.4,0,0,0-1.52-.28Zm11.27-1.64a.87.87,0,0,1,.36,1.67L81,38.09l2.75,1.07a4.2,4.2,0,0,0,5.42-2.39,4.19,4.19,0,0,0-2.38-5.42,4.17,4.17,0,0,0-5.42,2.38l-1.07,2.75,2.78-1.22a.84.84,0,0,1,.35-.07Zm-7.6-7.8a4.19,4.19,0,0,0-1.52,8.09L77,36.56l-1.22-2.79a.88.88,0,0,1,.45-1.15.85.85,0,0,1,.35-.08.91.91,0,0,1,.32.06.85.85,0,0,1,.48.47l1.23,2.78,1.07-2.75a4.21,4.21,0,0,0-2.39-5.42,4.19,4.19,0,0,0-1.52-.29ZM96.57,39.63a.85.85,0,0,1-.65-.28L95.64,39l-.32.28a.88.88,0,0,1-.59.22h0a.94.94,0,0,1-.6-.28.9.9,0,0,1-.22-.63.84.84,0,0,1,.29-.61l.31-.28-.28-.32A.88.88,0,0,1,94.83,36a.91.91,0,0,1,.65.29l.28.32.31-.29a.9.9,0,0,1,.59-.22.86.86,0,0,1,.65.29.81.81,0,0,1,.22.63.87.87,0,0,1-.28.6l-.32.28.29.32a.9.9,0,0,1,.22.63.82.82,0,0,1-.29.6.85.85,0,0,1-.58.22Zm-34-5.42a2.48,2.48,0,0,0,2-.94l.08-.12.14,0,.36,0a2.44,2.44,0,0,0,2.38-3,2.65,2.65,0,0,0-.36-.83l-.08-.11.06-.13a2.42,2.42,0,0,0-.32-2.65,2.45,2.45,0,0,0-1.88-.87,2.52,2.52,0,0,0-.67.09l-.14,0-.1-.1A2.44,2.44,0,0,0,62.3,25a2.53,2.53,0,0,0-.91.17,2.48,2.48,0,0,0-1.53,2.2v.14l-.13.06A2.44,2.44,0,0,0,60,32l.13.05,0,.14a2.35,2.35,0,0,0,.31.85A2.44,2.44,0,0,0,62,34.14a2.25,2.25,0,0,0,.58.07Zm-1.44-3.86a.88.88,0,0,1,.78,1.28.71.71,0,0,0,.08.5.67.67,0,0,0,.43.31.5.5,0,0,0,.17,0,.67.67,0,0,0,.66-.53.89.89,0,0,1,.55-.76.71.71,0,0,1,.32-.07.91.91,0,0,1,.63.26.62.62,0,0,0,.32.1.75.75,0,0,0,.62-.33.66.66,0,0,0,.08-.52.69.69,0,0,0-.31-.44.88.88,0,0,1-.56-.75.91.91,0,0,1,.47-.85.68.68,0,0,0,.07-1,.7.7,0,0,0-1-.08.91.91,0,0,1-.69.33.76.76,0,0,1-.21,0,.92.92,0,0,1-.66-.71.66.66,0,0,0-.63-.41.69.69,0,0,0-.25,0,.72.72,0,0,0-.38.38.69.69,0,0,0,0,.53.91.91,0,0,1,0,.94.88.88,0,0,1-.75.41h-.1a.69.69,0,0,0-.65.73.66.66,0,0,0,.7.64H61l.2,0Zm-2.44-7.66a.9.9,0,0,1-.91-.9V19a.91.91,0,0,1,.91-.91H72.59a.9.9,0,0,1,.9.91v2.8a.9.9,0,0,1-.9.9Zm.91-1.81H71.68v-1H59.62v1Zm-6.13-4.23a2.16,2.16,0,0,1-2.16-2.16v-7a2.17,2.17,0,0,1,2.16-2.17H77.81A2.17,2.17,0,0,1,80,7.53v7a2.16,2.16,0,0,1-2.16,2.16Zm22.77-1.92h1.79V7.29H53.25v7.44h1.92V8.31h1.25v6.42H58V8.31h1.25v6.42h1.59V8.31h1.24v6.42h1.59V8.31h1.25v6.42h1.59V8.31h1.24v6.42h1.59V8.31h1.25v6.42h1.59V8.31h1.24v6.42H75V8.31h1.25Z"/><path class="cls-3" d="M172,49.17a12.87,12.87,0,0,0-4-5.69,11.06,11.06,0,0,0-6-2.5,10.75,10.75,0,0,0-7.89,2.5,12.79,12.79,0,0,0-3.94,5.69,10.37,10.37,0,0,0-.31,7.36,3.83,3.83,0,0,1-.15,2.8A27.67,27.67,0,0,0,148.21,71,22.93,22.93,0,0,0,152,81.86a10.54,10.54,0,0,0,10,4.78q6.84-.54,10.4-9.48a34.78,34.78,0,0,0,2.27-14A42.2,42.2,0,0,0,172,49.17Zm-1.9,17.37a30.77,30.77,0,0,1-2.5,11q-2.36,4.62-6.37,4.85A6,6,0,0,1,156,79.88a14.18,14.18,0,0,1-2.43-5.61,25.09,25.09,0,0,1-.53-6.06,17.69,17.69,0,0,1,.83-5.92c.26-.71.61-1,1.07-.76a5.5,5.5,0,0,0,2.65.68,2.62,2.62,0,0,0,2.5-1.89c.41-1.22.1-2-.91-2.43a5.11,5.11,0,0,0-.76-.23l-.53-.15A6.54,6.54,0,0,1,156.4,57l-.45-.3-.46-.31a3.65,3.65,0,0,1-1-2,6,6,0,0,1-.08-2.2,7.16,7.16,0,0,1,2.43-5A6,6,0,0,1,162,45.6c1.77.26,3.32,1.5,4.63,3.72a17.41,17.41,0,0,1,1.44,3l.53,1.52.46,1.36a30.71,30.71,0,0,1,1,11.38Zm72,15.61v.19l0,.07c-.1.66-.59,1.78-2.72,1.92-.63,0-1.26,0-1.9,0s-1.27,0-1.9,0l-1.89,0a15.07,15.07,0,0,1-1.94-.13l-.5-.13a2,2,0,0,1-.64-.29,2.45,2.45,0,0,1-.84-1.68l-.06-1.41c0-.48-.06-1.16-.06-2l-.11-8.78c0-2.8,0-5.14.06-7l0-2.57V57.83a25.34,25.34,0,0,0-.1-2.66,3.16,3.16,0,0,1,.83-2.76,3.79,3.79,0,0,1,2.61-.54c.68,0,1.66.06,3,.06h1l1.33.12a4.71,4.71,0,0,1,2.41.62,2.16,2.16,0,0,1,1,1.89,2,2,0,0,1-1.91,2.1,5.05,5.05,0,0,1-1.22.13h-2.71a8.2,8.2,0,0,0-.86,0V57l-.06,4.48a19.82,19.82,0,0,0,0,2.18v1.64h2.31a9,9,0,0,1,1.33.06,2.22,2.22,0,0,1,2.05,2.29A2.34,2.34,0,0,1,238,70a6.06,6.06,0,0,1-1,.06h-2.15c0,.12,0,.27,0,.46l.06,1.36c0,1.18-.06,2.88-.06,5.12l-.06,1.69c0,.4,0,.65,0,.81h1.72c.59,0,1,.06,1.18.06l1.1.06a5.12,5.12,0,0,1,1.35.27c1.7.5,1.9,1.61,1.86,2.23Zm-59.54-43.6a7.09,7.09,0,0,1-.53,3.72l-1,2c-.35.7-.78,1-1.28,1s-.76-.4-.61-1.06c.2-.81.35-1.44.45-1.9a4.51,4.51,0,0,1-1.89-.15c-.56-.3-.86-1-.91-2a5.71,5.71,0,0,1,.3-3c.3-.61,1-.94,2.2-1,1.92-.1,3,.68,3.26,2.35ZM223,50.46a34.93,34.93,0,0,1,1.22,16.31q-2.36,15.62-13.05,18.8a26.39,26.39,0,0,1-9.71.84,7.63,7.63,0,0,0-2.35.23,5.86,5.86,0,0,1-3.49,0A2.3,2.3,0,0,1,194,85.12a1.85,1.85,0,0,1,.38-1.82,3.13,3.13,0,0,1,2.2-1.06H198a1.49,1.49,0,0,0,1.21-.69l.38-.91.3-1c.41-1.11.64-1.77.69-2a64.52,64.52,0,0,0,1-10.77V55.31c0-1,0-2.68-.15-5a6.07,6.07,0,0,0-.07-1,8.31,8.31,0,0,1,.07-1.14,6.79,6.79,0,0,1,.38-2.42,2.14,2.14,0,0,1,4.1-.16,3.67,3.67,0,0,1,.3,1.29v.76l.07.76a8.49,8.49,0,0,1,0,1.75c0,1.46,0,3.64.08,6.52l.08,3.49.07,3.56a86.62,86.62,0,0,1-.68,13.35,19.12,19.12,0,0,1-.91,3.87l-.08.45c-.15.51.16.76.91.76H206a12,12,0,0,0,1.44-.23l.61-.22.76-.23Q217,79.05,219,67.9a33.7,33.7,0,0,0-1.52-18.28,13.48,13.48,0,0,0-5.53-6.75,13.7,13.7,0,0,0-8.5-2,12.3,12.3,0,0,0-9.17,5.46A10.22,10.22,0,0,0,192.43,54a8.08,8.08,0,0,0,1.44,3.41l.45.46.53.45a4.18,4.18,0,0,1,.91,1.29,1.65,1.65,0,0,1-.07,1.29,1.63,1.63,0,0,1-.84.91,2.88,2.88,0,0,1-2.65.08,6,6,0,0,1-2.35-1.9,10.82,10.82,0,0,1-1.82-4A12,12,0,0,1,187.5,52a15.68,15.68,0,0,1,2.27-7.51,14.51,14.51,0,0,1,5.54-5.54q9-4.78,17.52-.68,7.28,3.48,10.16,12.21Zm158.34-3.61v.6a29.32,29.32,0,0,1-.08,3.49l-.07,3.57v1.82l.07,1.82.08,3.79q.07,4.55-.15,7.28V74l-.08,2q-.15,4.94-.68,5.77a1.82,1.82,0,0,1-1.44.76,2.25,2.25,0,0,1-1.67-.31,3.3,3.3,0,0,1-1.06-2.5c-.05-1-.08-2.25-.08-3.87l.08-2V72c0-2.58.12-5.38.37-8.42.11-2.52.18-4.44.23-5.76v-.46l-.07-.6c-.16-.41-.38-.63-.69-.68s-.55.58-1.06,1.59l-1.29,3-1.29,3-.75,1.44a10.07,10.07,0,0,0-.69,1.44l-.38.83a2.77,2.77,0,0,1-.53.76,1.78,1.78,0,0,1-1.59.76c-.56,0-1-.51-1.44-1.37a5.9,5.9,0,0,1-.46-1.06l-.15-.45-.15-.46a21,21,0,0,0-.91-2.2l-.91-2.2a1.09,1.09,0,0,1-.15-.45l-.15-.31L364,60l-.84-1.74A23.71,23.71,0,0,0,362,55.72c-.31-.25-.46-.07-.46.53a1.93,1.93,0,0,0,0,.76v.46q0,2.27.15,6.29l.16,3.41.15,3.42c.05,1.72.05,3.23,0,4.55a38,38,0,0,1-.46,5.16q-1,6.06-4.09,8a8.34,8.34,0,0,1-6,1.59,2.23,2.23,0,0,1-1.74-1.75A1.77,1.77,0,0,1,351,85.83l.76-.23.76-.22a10.63,10.63,0,0,0,1.36-.46A4,4,0,0,0,356,83a18.65,18.65,0,0,0,1-5.38c0-.36,0-.79.08-1.29v-1l.07-2.43V66.72l-.07-3.79q-.07-4.71,0-7.51c0-2.17,0-3.79-.08-4.86V48.74c0-1.06,0-2,.08-2.8l.07-.84v-.75l.08-.69.07-.76a1.75,1.75,0,0,1,.76-1.21,1.68,1.68,0,0,1,1.37-.23c.81.11,1.49.76,2,2l1.21,2.89,1.21,2.88q1.51,3.64,2.51,5.76l.07.23.08.23.3.76a18.37,18.37,0,0,0,.83,1.74c.86,1.47,1.6,1.85,2.21,1.14a16.68,16.68,0,0,0,1.59-2.88,21.89,21.89,0,0,0,1.36-3.11l.61-1.6.68-1.51c.61-1.37,1-2.43,1.29-3.19l.15-.45.23-.61.46-1,.15-.37.15-.38.45-.84a4,4,0,0,1,1.07-1.36c.91-.71,1.79-.53,2.65.53a3.78,3.78,0,0,1,.76,2.42l-.08,1.45-.07.68Zm-30,12.33a33.2,33.2,0,0,0,.08-9.71,9.51,9.51,0,0,0-2.05-4.7,6.32,6.32,0,0,0-4-2.43,32,32,0,0,0-8.57-.3l-.53.08h-.46a1.42,1.42,0,0,0-.83.37,3.29,3.29,0,0,0-.69,1.9v4.32l.08,1.29v1.37c.05,2.38.05,4.27,0,5.69v2.73l.08,2.8c.05,2.38.05,4.18,0,5.39l-.08,2.58-.08,2.58c0,2.17-.05,3.91-.15,5.23a11.11,11.11,0,0,0,.31,3,1.91,1.91,0,0,0,2.12,1.75,1.94,1.94,0,0,0,2.05-1.9,14.88,14.88,0,0,0,.22-1.82v-.91l.08-.68.08-2.73.07-2.66v-2a13.91,13.91,0,0,0,0-2c-.1-1,.18-1.47.84-1.52a12.75,12.75,0,0,1,1.51-.07h.76l.84-.08a10.73,10.73,0,0,0,5.53-1.9,8,8,0,0,0,1.9-2.58,11.66,11.66,0,0,0,.91-3Zm-4.4-3.11-.08.84v.83c-.1.66-.2,1.21-.3,1.67A3.39,3.39,0,0,1,344.63,62a8.09,8.09,0,0,1-2.66.53,6.42,6.42,0,0,1-2.65-.15c-.21-.16-.33-.61-.38-1.37V54.55l-.08-2.5V48.87l.08-1a6.08,6.08,0,0,1,.07-1.44.7.7,0,0,1,.46-.38,6.77,6.77,0,0,1,2.12-.15,8.57,8.57,0,0,1,2.05.23,3.92,3.92,0,0,1,3,3.18,18.79,18.79,0,0,1,.3,3.34,18.73,18.73,0,0,1,0,3.41ZM301.09,43.56a2.48,2.48,0,0,1,.53,1.21v3.41l-.07,3.64q-.07,4.49,0,7.06,0,6.75-.08,10.46t0,7.13v1.07l-.07,1.06c0,.86,0,1.56-.08,2.12q-.22,3.5-2.73,3.49a.86.86,0,0,1-.38-.08c-.51.05-1.11.08-1.82.08l-1.74-.08H293.2l-1.29-.07H290.7q-10.62-.07-15.32-.23l-.61.15-1.89-.15c-.41,0-.69-.08-.84-.08h-.91l-.91-.15a.53.53,0,0,1-.22-.07l-1.29-.15q-2.28-.16-1.9-5.16c.14-.38.22-4.06.23-11h0V57.21L267,56.6v-.76c-.06-2.22-.06-4.45,0-6.67a8.35,8.35,0,0,0,0-1.44l.07-1.59A4,4,0,0,1,268,43.4a1.14,1.14,0,0,1,.46-.3q3.26-1,3.26,3,0,7.57.07,12.74c0,.71,0,2.27-.07,4.7v3.68h.09c0,7.66.07,11.53.11,11.56a2.16,2.16,0,0,0,1.06.23h.84c1.06,0,2.07,0,3,.08a7.68,7.68,0,0,1,1.06-.08c.71,0,1.24-.07,1.6-.07h.91c.35,0,.55-.21.6-.46,0-.08.05-1.92.06-5.5s0-8.51,0-15.2v-.61L281,56.6v-.76c-.05-2.22-.05-4.45,0-6.67a6.69,6.69,0,0,0,0-1.44l.08-1.59A4,4,0,0,1,282,43.4a1.18,1.18,0,0,1,.45-.3q3.27-1,3.27,3,0,7.57.07,12.74c0,.71,0,2.27-.07,4.7V70c0,1.06,0,2,0,3,0,2.49.16,4.57.34,6.18q6.3.08,8,0H295l.91.08h.54v-.23l.07-2V75.49l.08-1.44V72.68c.05-.66.07-1.64.07-3l.08-6.44.07-6.45.08-2.58-.08-2.65c0-2.28,0-4.05.08-5.31V45.23c.05-.41.1-.76.15-1.07a1.59,1.59,0,0,1,1.37-1.29,1.88,1.88,0,0,1,.75,0H300a1.46,1.46,0,0,1,1.14.69Zm26.85,35-.08-.53-.45-2.5-.53-2.43c-.1-.71-.31-1.72-.61-3-.25-1.07-.58-2.46-1-4.18l-.45-2.27-.53-2.35q-1.29-5.85-2.12-8.95c-.21-.81-.43-1.82-.69-3l-.3-1.51-.3-1.59-.23-1-.15-.91a2.94,2.94,0,0,0-.91-1.59,2.68,2.68,0,0,0-3-.38,3,3,0,0,0-1.67,2.2l-.45,1.82-.53,1.89-.23.91-.3.91c-.26.86-.51,1.93-.76,3.19l-.68,3.11-.53,2.88L310.8,62q-.76,3.56-1.06,5.69c-.26,1.87-.56,3.53-.91,5-.11.51-.23,1.06-.38,1.67l-.15.83-.16.84-.3,1.59-.3,1.52-.15.83-.16.91a2,2,0,0,0,.38,1.52c1.17,1.26,2.3,1.36,3.42.3a5,5,0,0,0,1.06-2.42,11.24,11.24,0,0,0,.38-1.52l.15-1.21c.15-.66.38-1,.68-1.07h3.79l3.72.15a6.49,6.49,0,0,1,2,.23,14.75,14.75,0,0,1,.46,1.9l.15.91.15,1a7.46,7.46,0,0,0,.53,1.6c.61,1.06,1.64,1.36,3.11.91.66-.21,1-1,1-2.35a11.14,11.14,0,0,0-.15-1.6l-.08-.68Zm-6.67-6.07a50.48,50.48,0,0,1-5.77,0h-1q-.76-.08-.84-.3a6.38,6.38,0,0,1,.23-2.35L314,69l.16-.68a5.61,5.61,0,0,0,.22-1.06,106.41,106.41,0,0,1,2.51-11.08l.07-.22v-.38a7.21,7.21,0,0,0,.23-.84c.2-.81.4-1.14.61-1s.68,1.66,1.29,4.55l.6,3.18c.2,1,.33,1.67.38,2l.53,2.35.53,2.36.23,1.59.3,1.52C321.85,72,321.72,72.4,321.27,72.45Z"/><text class="cls-4" transform="translate(149.89 116.94)">На рынке уже 20 лет</text></g></g></svg>